<svg width="64" height="64" viewBox="0 0 64 64" fill="none" xmlns="http://www.w3.org/2000/svg">
<path fill-rule="evenodd" clip-rule="evenodd" d="M57.5897 0.100284C57.5704 0.155481 57.3708 0.940667 57.1462 1.84523C56.1139 6.00238 54.0741 13.6963 52.5417 19.2145C48.8172 32.6256 46.1585 40.3586 44.8722 41.5219C44.4348 41.9176 43.3068 42.4424 42.1264 42.7995C37.2171 44.2844 25.7942 45.0596 11.5895 44.8717C6.05333 44.7984 5.69879 44.8042 4.97802 44.9785C3.79428 45.2647 2.24061 46.2187 1.52344 47.0995C0.824787 47.9576 0.334893 48.9564 0.129336 49.9416C-0.0458495 50.7813 -0.0419227 57.9764 0.134144 58.7265C0.615222 60.7761 2.50187 62.5246 5.1383 63.3643C7.04642 63.972 8.49598 64.0793 13.0969 63.9533C19.1677 63.7871 23.7545 63.4268 28.6593 62.7307C36.5557 61.6101 43.4209 59.5981 46.0257 57.6409C49.0868 55.341 50.8119 50.717 55.9468 31.048C56.4606 29.0798 57.5641 24.8302 59.8631 15.9653C62.0508 7.52983 63.9594 0.208591 63.9991 0.100284C64.0281 0.0210998 63.3609 0 60.8302 0C58.3379 0 57.6169 0.0223032 57.5897 0.100284ZM16.1958 9.63981C14.6153 9.70255 13.6179 9.81286 12.2707 10.0739C7.32058 11.0331 4.03069 13.3433 3.32362 16.3566C3.13962 17.141 3.20814 18.3962 3.47652 19.1588C4.3337 21.5938 6.84823 23.5119 10.6016 24.5938C11.6488 24.8956 13.2838 25.2033 14.6749 25.3602C15.8009 25.4873 19.288 25.4877 20.485 25.3609C23.9329 24.9957 26.7533 24.093 28.8579 22.6813C29.6785 22.1308 30.7594 21.0313 31.1772 20.3221C31.7109 19.416 31.9237 18.7162 31.9654 17.7303C32.0253 16.3128 31.641 15.1801 30.7052 14.0156C29.8765 12.9842 28.8283 12.2007 27.2969 11.4679C24.3889 10.0762 20.6614 9.46235 16.1958 9.63981ZM3.21615 26.1742C3.21695 27.4619 3.25021 28.0989 3.33524 28.46C3.95464 31.0897 6.61847 33.2256 10.666 34.3377C13.8009 35.1991 18.004 35.4272 21.607 34.9312C26.4747 34.2611 30.1446 32.2851 31.4267 29.644C31.9236 28.6204 31.9915 28.1854 31.9666 26.1845L31.945 24.4483L31.5843 24.7526C30.7321 25.4714 28.8757 26.5526 27.6575 27.0396C25.7575 27.7992 23.6973 28.2953 21.1261 28.6122C19.5397 28.8079 15.7994 28.8103 14.1941 28.6168C11.9004 28.3403 9.6673 27.8096 7.98325 27.141C6.40947 26.5161 4.77959 25.5996 3.75701 24.7645C3.50417 24.5581 3.27882 24.3891 3.25614 24.3891C3.23346 24.3891 3.21551 25.1924 3.21615 26.1742Z" fill="#BABABA" fill-opacity="0.47"/>
</svg>
