<svg width="700" height="700" viewBox="0 0 700 700" fill="none" xmlns="http://www.w3.org/2000/svg">
<path fill-rule="evenodd" clip-rule="evenodd" d="M322.195 0.646559C212.478 10.5266 117.946 66.1676 58.0289 156.134C27.0689 202.621 8.29389 254.266 1.31589 312.134C-0.417108 326.507 -0.44511 372.683 1.27189 386.634C4.68889 414.414 10.1239 438.585 18.4299 462.953C58.3829 580.164 159.235 668.694 279.958 692.525C306.554 697.775 320.274 699.066 349.458 699.066C378.642 699.066 392.362 697.775 418.958 692.525C539.084 668.812 640.151 580.464 680.05 464.29C692.156 429.044 698.031 396.656 699.126 359.134C702.807 232.989 638.078 115.137 528.833 49.0836C490.302 25.7866 441.254 8.82856 394.458 2.62456C376.76 0.278559 338.048 -0.781441 322.195 0.646559ZM392.994 125.747C378.89 127.801 365.445 137.635 359.317 150.377C356.545 156.142 356.005 158.506 355.64 166.477C355.106 178.108 357.16 186.463 362.53 194.504C375.109 213.341 402.286 219.773 424.16 209.09C439.893 201.405 448.561 187.589 448.555 170.202C448.548 146.714 433.189 129.044 409.85 125.67C402.048 124.542 401.238 124.546 392.994 125.747ZM357.867 246.672C330.449 250.299 291.883 275.327 264.298 307.395C251.088 322.753 250.767 323.377 250.035 335.134C248.861 354.004 247.911 354.386 272.405 326.125C284.169 312.551 296.082 299.739 298.877 297.655C309.03 290.085 313.419 289.015 317.772 293.049C321.795 296.777 322.004 299.635 318.97 309.401C317.477 314.204 301.644 364.484 283.784 421.134L251.312 524.134L251.646 533.134C252.057 544.201 254.997 551.268 262.179 558.451C273.698 569.969 288.993 575.189 306.398 573.543C340.92 570.276 368 552.562 398.112 513.546C411.551 496.133 411.154 497.031 411.939 482.273C412.39 473.815 412.281 469.536 411.621 469.773C411.07 469.972 401.667 480.484 390.726 493.134C379.785 505.784 368.612 518.093 365.896 520.488C359.926 525.753 352.577 529.634 348.58 529.634C344.721 529.634 340.456 524.733 340.463 520.307C340.466 518.562 355.816 468.759 374.574 409.634C405.608 311.811 408.724 301.365 409.18 293.596C409.762 283.706 408.109 275.801 403.884 268.266C395.414 253.157 376.377 244.224 357.867 246.672Z" fill="#DEE0E5"/>
</svg>
